<?xml version="1.0" encoding="UTF-8" standalone="no"?>
<!-- Generator: Adobe Illustrator 16.0.4, SVG Export Plug-In . SVG Version: 6.00 Build 0)  -->

<svg
   xmlns:dc="http://purl.org/dc/elements/1.1/"
   xmlns:cc="http://creativecommons.org/ns#"
   xmlns:rdf="http://www.w3.org/1999/02/22-rdf-syntax-ns#"
   xmlns:svg="http://www.w3.org/2000/svg"
   xmlns="http://www.w3.org/2000/svg"
   xmlns:sodipodi="http://sodipodi.sourceforge.net/DTD/sodipodi-0.dtd"
   xmlns:inkscape="http://www.inkscape.org/namespaces/inkscape"
   version="1.1"
   id="Layer_1"
   x="0px"
   y="0px"
   width="109px"
   height="22.3px"
   viewBox="0 0 109 22.3"
   enable-background="new 0 0 109 22.3"
   xml:space="preserve"
   inkscape:version="0.91 r13725"
   sodipodi:docname="logo.svg"><metadata
   id="metadata3353"><rdf:RDF><cc:Work
       rdf:about=""><dc:format>image/svg+xml</dc:format><dc:type
         rdf:resource="http://purl.org/dc/dcmitype/StillImage" /><dc:title></dc:title></cc:Work></rdf:RDF></metadata><defs
   id="defs3351" /><sodipodi:namedview
   pagecolor="#ffffff"
   bordercolor="#666666"
   borderopacity="1"
   objecttolerance="10"
   gridtolerance="10"
   guidetolerance="10"
   inkscape:pageopacity="0"
   inkscape:pageshadow="2"
   inkscape:window-width="1440"
   inkscape:window-height="878"
   id="namedview3349"
   showgrid="false"
   inkscape:zoom="12.018349"
   inkscape:cx="54.5"
   inkscape:cy="11.15"
   inkscape:window-x="-8"
   inkscape:window-y="-8"
   inkscape:window-maximized="1"
   inkscape:current-layer="Layer_1" />
<g
   id="g3337">
	<g
   id="g3339">
		<path
   fill-rule="evenodd"
   clip-rule="evenodd"
   d="M0.337,18.382h4.608V4.911h5.438v13.471h4.608V0.757H0.337V18.382z     M51.604,9.393V0.757h-4.608v17.651h1.611l8.889-8.687v8.662h4.659V0.681h-1.637L51.604,9.393z M78.182,14.455    C75.513,14.43,73.8,12.164,73.8,9.569c0-2.92,1.738-4.91,4.381-4.91c1.888,0,3.223,0.806,3.853,2.594h4.432    c-0.68-4.708-4.633-6.698-8.284-6.698c-4.482,0-9.015,3.022-9.04,9.015c0.025,5.993,4.558,9.015,9.04,8.99    c3.752,0,7.706-1.964,8.359-6.95H82.11C81.631,13.498,80.095,14.455,78.182,14.455z M103.979,9.922    c3.5-2.241,3.399-5.564,3.399-9.166h-4.633c0,3.298,0.227,6.673-4.28,6.673h-0.328V0.757h-4.583v17.625h4.583V11.66    c0.579,0,1.133,0,1.738-0.101l3.877,6.823h5.011v-0.705L103.979,9.922z"
   id="path3341" />
	</g>
</g>
<g
   id="g3343">
	<g
   id="g3345">
		<path
   fill-rule="evenodd"
   clip-rule="evenodd"
   fill="#2895F1"
   d="M43.683,19.086l-4.753-4.753    c2.195-3.636,1.733-8.426-1.405-11.563c-3.693-3.693-9.68-3.693-13.373,0c-3.693,3.692-3.693,9.68,0,13.373    c3.138,3.138,7.927,3.599,11.563,1.405l4.753,4.753L43.683,19.086z M27.632,12.661c-1.77-1.77-1.77-4.64,0-6.411    c1.77-1.77,4.64-1.77,6.41,0c1.77,1.771,1.77,4.641,0,6.411C32.272,14.431,29.402,14.431,27.632,12.661z"
   id="path3347" />
	</g>
</g>
</svg>